<mxfile host="app.diagrams.net" agent="Mozilla/5.0 (Macintosh; Intel Mac OS X 10_15_7) AppleWebKit/537.36 (KHTML, like Gecko) Chrome/130.0.0.0 Safari/537.36" version="24.8.6">
  <diagram name="第 1 页" id="T3qdedCyY2Oe8BMPkO9E">
    <mxGraphModel dx="1956" dy="714" grid="1" gridSize="10" guides="1" tooltips="1" connect="1" arrows="1" fold="1" page="1" pageScale="1" pageWidth="827" pageHeight="1169" math="0" shadow="0">
      <root>
        <mxCell id="0" />
        <mxCell id="1" parent="0" />
        <mxCell id="8NF_kaKV3KKv109ifq8C-5" value="" style="group" vertex="1" connectable="0" parent="1">
          <mxGeometry x="-170" y="160" width="290" height="280" as="geometry" />
        </mxCell>
        <mxCell id="8NF_kaKV3KKv109ifq8C-1" value="" style="rounded=0;whiteSpace=wrap;html=1;" vertex="1" parent="8NF_kaKV3KKv109ifq8C-5">
          <mxGeometry width="280" height="280" as="geometry" />
        </mxCell>
        <mxCell id="8NF_kaKV3KKv109ifq8C-2" value="" style="rounded=0;whiteSpace=wrap;html=1;" vertex="1" parent="8NF_kaKV3KKv109ifq8C-5">
          <mxGeometry x="60" y="50" width="150" height="30" as="geometry" />
        </mxCell>
        <mxCell id="8NF_kaKV3KKv109ifq8C-3" value="" style="rounded=0;whiteSpace=wrap;html=1;" vertex="1" parent="8NF_kaKV3KKv109ifq8C-5">
          <mxGeometry x="60" y="110" width="150" height="30" as="geometry" />
        </mxCell>
        <mxCell id="8NF_kaKV3KKv109ifq8C-4" value="CRM&amp;nbsp;" style="ellipse;whiteSpace=wrap;html=1;aspect=fixed;" vertex="1" parent="8NF_kaKV3KKv109ifq8C-5">
          <mxGeometry x="150" y="170" width="50" height="50" as="geometry" />
        </mxCell>
        <mxCell id="8NF_kaKV3KKv109ifq8C-6" value="" style="whiteSpace=wrap;html=1;align=left;" vertex="1" parent="1">
          <mxGeometry x="250" y="59.99999999999999" width="540" height="294.37" as="geometry" />
        </mxCell>
        <mxCell id="8NF_kaKV3KKv109ifq8C-7" value="" style="edgeStyle=orthogonalEdgeStyle;rounded=0;orthogonalLoop=1;jettySize=auto;html=1;" edge="1" parent="1" source="8NF_kaKV3KKv109ifq8C-4" target="8NF_kaKV3KKv109ifq8C-6">
          <mxGeometry relative="1" as="geometry" />
        </mxCell>
        <mxCell id="8NF_kaKV3KKv109ifq8C-9" value="/oauth2/authorize 第一次进来，接口检测到CRM没有登录，重定向到CRM 登录页面，登录成功后会重新重定向到原请求地址。&lt;div&gt;&lt;br&gt;&lt;/div&gt;&lt;div&gt;此时 /oauth2/authoirze 接口后台检测到已经登录状态，会给在接口redirect携带code跳转到指定的回调地址。&lt;/div&gt;&lt;div&gt;&lt;br&gt;&lt;/div&gt;&lt;div&gt;=================================&lt;/div&gt;&lt;div&gt;&lt;br&gt;&lt;/div&gt;&lt;div&gt;第三方会使用code去获取access_token&lt;/div&gt;&lt;div&gt;&lt;br&gt;&lt;/div&gt;&lt;div&gt;第三方拿到access_token，即可使用该token请求用户信息接口。&lt;/div&gt;&lt;div&gt;&lt;br&gt;&lt;/div&gt;" style="text;html=1;align=left;verticalAlign=top;whiteSpace=wrap;rounded=0;horizontal=1;" vertex="1" parent="1">
          <mxGeometry x="267.5" y="82.18" width="505" height="250" as="geometry" />
        </mxCell>
      </root>
    </mxGraphModel>
  </diagram>
</mxfile>
